<svg xmlns="http://www.w3.org/2000/svg" version="1.1" xmlns:xlink="http://www.w3.org/1999/xlink" viewBox="0 0 200 200" width="200" height="200"><metadata><rdf:RDF xmlns:rdf="http://www.w3.org/1999/02/22-rdf-syntax-ns#" xmlns:dc="http://purl.org/dc/elements/1.1/"><rdf:Description><dc:creator>RealFaviconGenerator</dc:creator><dc:source>https://realfavicongenerator.net</dc:source></rdf:Description></rdf:RDF></metadata><rect width="200" height="200" fill="url('#gradient')"></rect><defs><linearGradient id="gradient" gradientTransform="rotate(45 0.5 0.5)"><stop offset="0%" stop-color="#ffffff"></stop><stop offset="100%" stop-color="#ffffff"></stop></linearGradient></defs><g><g fill="#005daa" transform="matrix(3.5815580286168522,0,0,3.5815580286168522,8.164321548684796,125.45134361157926)" stroke="#005daa" stroke-width="0.2"><path d="M12.95-14.22L12.95 0L9.54 0L4.50-8.85L4.50 0L1.07 0L1.07-14.22L4.50-14.22L9.53-5.37L9.53-14.22L12.95-14.22ZM20.89 0L15.12 0L15.12-14.22L20.22-14.22Q22.97-14.22 24.40-13.21Q25.83-12.21 25.83-10.29L25.83-10.29Q25.83-9.19 25.32-8.41Q24.81-7.63 23.83-7.26L23.83-7.26Q24.94-6.96 25.54-6.16Q26.13-5.36 26.13-4.21L26.13-4.21Q26.13-2.12 24.81-1.07Q23.49-0.02 20.89 0L20.89 0ZM20.95-6.04L18.54-6.04L18.54-2.64L20.79-2.64Q21.72-2.64 22.22-3.06Q22.71-3.49 22.71-4.26L22.71-4.26Q22.71-6.04 20.95-6.04L20.95-6.04ZM18.54-11.57L18.54-8.29L20.33-8.29Q21.46-8.30 21.93-8.70Q22.41-9.10 22.41-9.88L22.41-9.88Q22.41-10.78 21.89-11.18Q21.38-11.57 20.22-11.57L20.22-11.57L18.54-11.57ZM35.35-3.78L35.35-3.78Q35.35-4.53 34.82-4.95Q34.29-5.37 32.95-5.82Q31.61-6.27 30.76-6.69L30.76-6.69Q28.00-8.05 28.00-10.42L28.00-10.42Q28.00-11.60 28.69-12.50Q29.38-13.41 30.63-13.91Q31.89-14.41 33.47-14.41L33.47-14.41Q35-14.41 36.22-13.87Q37.43-13.32 38.11-12.31Q38.78-11.30 38.78-10L38.78-10L35.36-10Q35.36-10.87 34.83-11.35Q34.30-11.83 33.39-11.83L33.39-11.83Q32.47-11.83 31.94-11.42Q31.41-11.02 31.41-10.39L31.41-10.39Q31.41-9.84 31.99-9.40Q32.58-8.96 34.05-8.48Q35.53-8.01 36.47-7.46L36.47-7.46Q38.78-6.13 38.78-3.80L38.78-3.80Q38.78-1.93 37.37-0.87Q35.97 0.20 33.52 0.20L33.52 0.20Q31.79 0.20 30.39-0.42Q28.98-1.04 28.28-2.12Q27.57-3.20 27.57-4.61L27.57-4.61L31.01-4.61Q31.01-3.47 31.60-2.92Q32.19-2.38 33.52-2.38L33.52-2.38Q34.37-2.38 34.86-2.75Q35.35-3.12 35.35-3.78ZM50.21-14.22L50.21-12.46L44.90 0L41.43 0L46.75-11.68L39.97-11.68L39.97-14.22L50.21-14.22Z"></path></g></g></svg>